<svg xmlns="http://www.w3.org/2000/svg" width="88.106" height="66.759" viewBox="0 0 88.106 66.759">
  <g id="Group_38410" data-name="Group 38410" transform="translate(-1.66 -7.315)">
    <path id="Path_6919" data-name="Path 6919" d="M26.1,20.72,32.8,7.315H57.638l7.884,13.4H79.713A10.106,10.106,0,0,1,89.766,30.842V40.887H76.036v-6.7H63.291v6.7H28.462v-6.7H15.718v6.7H1.66V30.842A10.1,10.1,0,0,1,11.711,20.72ZM73.343,40.889V37.014H65.988v3.875Zm-47.567,0V37.014H18.415v3.875ZM4.676,43.52H15.72v9.794H28.464V43.52H63.291v9.794H76.036V43.52H86.746V65.012a9.085,9.085,0,0,1-9.069,9.062H13.747a9.091,9.091,0,0,1-9.073-9.062V43.52Zm61.31,0v6.963h7.355V43.52Zm-47.573,0v6.963h7.361V43.52Zm41.193-22.8-4.924-9.394-18.6-.2L31.223,20.72Z" transform="translate(0 0)" fill="#b72637" fill-rule="evenodd"/>
  </g>
</svg>
