<svg xmlns="http://www.w3.org/2000/svg" width="51.704" height="70.798" viewBox="0 0 51.704 70.798">
  <g id="Group_38413" data-name="Group 38413" transform="translate(-9.543 -1.25)">
    <g id="Group_38411" data-name="Group 38411" transform="translate(20.334 1.25)">
      <path id="Path_6920" data-name="Path 6920" d="M47.577,17.27a5.683,5.683,0,0,0,.038-.665A13.643,13.643,0,0,0,36.721,3.243h0a2.884,2.884,0,0,0-5.485,0h0A13.641,13.641,0,0,0,20.341,16.6a5.7,5.7,0,0,0,.038.667,4.855,4.855,0,0,0-1.462,3.311c0,4.251,6.743,6.577,15.061,6.577s15.061-2.325,15.061-6.577A4.858,4.858,0,0,0,47.577,17.27Zm-4.133-3.612a1.068,1.068,0,0,1,1.068,1.068v4.411a1.068,1.068,0,0,1-2.137,0V14.726a1.068,1.068,0,0,1,1.068-1.068Zm-10.535,7.5V16.745a1.036,1.036,0,0,1,.041-.295,1.068,1.068,0,0,1,2.054,0,1.036,1.036,0,0,1,.041.295v4.411a1.068,1.068,0,0,1-2.137,0Zm-7.573-7.5a1.067,1.067,0,0,1,1.068,1.068v4.411a1.068,1.068,0,0,1-2.137,0V14.7A1.067,1.067,0,0,1,25.337,13.658Z" transform="translate(-18.917 -1.25)" fill="#b72637"/>
      <path id="Path_6921" data-name="Path 6921" d="M45.028,23.745c-.411.168-.843.322-1.292.469a17.6,17.6,0,0,1-2.993,7.577C38.73,34.634,36.249,36.2,33.758,36.2s-4.971-1.566-6.985-4.409a17.6,17.6,0,0,1-2.993-7.577c-.449-.145-.882-.3-1.292-.469a13.04,13.04,0,0,1-2.124-1.089A20.736,20.736,0,0,0,24.1,33.686c2.645,3.736,6.077,5.793,9.661,5.793s7.015-2.057,9.661-5.793a20.746,20.746,0,0,0,3.732-11.03A12.87,12.87,0,0,1,45.028,23.745Z" transform="translate(-18.698 1.986)" fill="#b72637"/>
    </g>
    <path id="Path_6922" data-name="Path 6922" d="M45.01,37.016h0a50.478,50.478,0,0,1,4.978,2.3L43.466,66.63l-.8.01H25.055L18.188,39.314a50.925,50.925,0,0,1,4.978-2.3l.015.03h0a13.243,13.243,0,0,0,21.809,0Z" transform="translate(1.307 5.408)" fill="#b72637"/>
    <g id="Group_38412" data-name="Group 38412" transform="translate(9.543 46.698)">
      <path id="Path_6923" data-name="Path 6923" d="M16.032,40.729a11.307,11.307,0,0,0-4.3,4.654C10.485,47.789,9.693,59.6,9.552,62.32c-.045.84.059.984.832,1.284.368.142.738.279,1.113.4a43.2,43.2,0,0,0,8.465,1.805.206.206,0,0,1-.007.025h.221c.243.028.485.055.728.078l1.493,0Z" transform="translate(-9.543 -40.729)" fill="#b72637"/>
      <path id="Path_6924" data-name="Path 6924" d="M56.125,62.074c-.145-2.021-.618-13.255-1.421-15.114a12.044,12.044,0,0,0-4.8-6.054c-.084-.049-.17-.094-.254-.143L43.277,65.982l.754,0c.443-.048.885-.1,1.324-.155h.382l-.012-.046c.456-.059.909-.122,1.361-.186a38.578,38.578,0,0,0,8.04-1.925C56.122,63.3,56.2,63.153,56.125,62.074Z" transform="translate(-4.443 -40.724)" fill="#b72637"/>
    </g>
  </g>
</svg>
