<svg xmlns="http://www.w3.org/2000/svg" width="70.788" height="70.798" viewBox="0 0 70.788 70.798">
  <path id="Path_6891" data-name="Path 6891" d="M70.575,68.369H68.363V59.521h2.212a2.212,2.212,0,0,0,0-4.424H68.363V48.46a2.212,2.212,0,1,0-4.424,0V55.1H59.515V48.46a2.212,2.212,0,0,0-4.424,0V55.1H50.666V48.46a2.212,2.212,0,0,0-4.424,0V55.1H44.03a2.212,2.212,0,0,0,0,4.424h2.212v8.848H24.122V41.691a19.908,19.908,0,1,0-4.424,0V68.369H4.213a2.212,2.212,0,0,0,0,4.424H70.575a2.212,2.212,0,0,0,0-4.424Zm-15.485,0H50.666V59.521h4.424Zm8.848,0H59.515V59.521h4.424Z" transform="translate(-1.999 -1.995)" fill="#b72637"/>
</svg>
