<svg xmlns="http://www.w3.org/2000/svg" width="74.419" height="70.798" viewBox="0 0 74.419 70.798">
  <path id="Path_6925" data-name="Path 6925" d="M.7,34.018a6.508,6.508,0,0,0,2.255,4.866,7.376,7.376,0,0,0,5.1,1.9,8.078,8.078,0,0,0,3.679-.95v28.13h-1.9c-.95,0-1.662,1.068-1.662,2.492s.712,2.492,1.662,2.492h56.14c.95,0,1.662-1.068,1.662-2.492s-.712-2.492-1.662-2.492H64.2V39.834a7.48,7.48,0,0,0,3.561.831,7.974,7.974,0,0,0,5.1-1.9,6.378,6.378,0,0,0,0-9.733L45.921,5.177a12.275,12.275,0,0,0-16.142,0L2.955,29.033A6.759,6.759,0,0,0,.7,34.018Zm4.392,0A1.914,1.914,0,0,1,5.8,32.475L32.746,8.381a8.065,8.065,0,0,1,10.326,0L69.9,32.357a2.3,2.3,0,0,1,.712,1.543,1.914,1.914,0,0,1-.712,1.543,3.412,3.412,0,0,1-2.136.831,2.86,2.86,0,0,1-2.136-.831L40.936,13.6a4.693,4.693,0,0,0-6.172,0L10.2,35.561a3.248,3.248,0,0,1-4.273,0,3.147,3.147,0,0,1-.593-.712A3.019,3.019,0,0,1,5.092,34.018ZM46.4,51.94a5.5,5.5,0,0,1,1.78-3.917,6.573,6.573,0,0,1,4.392-1.543c3.323,0,6.172,2.492,6.172,5.46V67.964H46.4ZM24.557,51.11a.561.561,0,0,1,.593-.593h4.866a.561.561,0,0,1,.593.593V55.5a.561.561,0,0,1-.593.593H25.15a.561.561,0,0,1-.593-.593Zm0-5.934a.561.561,0,0,1,.593-.593h4.866a.561.561,0,0,1,.593.593v4.273a.561.561,0,0,1-.593.593H25.15a.561.561,0,0,1-.593-.593Zm-7,5.934a.561.561,0,0,1,.593-.593h4.866a.561.561,0,0,1,.593.593V55.5a.561.561,0,0,1-.593.593H18.147a.561.561,0,0,1-.593-.593Zm0-5.934a.561.561,0,0,1,.593-.593h4.866a.561.561,0,0,1,.593.593v4.273a.561.561,0,0,1-.593.593H18.147a.561.561,0,0,1-.593-.593Z" transform="translate(-0.7 -2.15)" fill="#b72637"/>
</svg>
