<svg xmlns="http://www.w3.org/2000/svg" width="62.914" height="78.863" viewBox="0 0 62.914 78.863">
  <g id="Group_38409" data-name="Group 38409" transform="translate(-14.911 -7.033)">
    <path id="Path_6914" data-name="Path 6914" d="M38.856,27.185a.667.667,0,0,0,.564.246.471.471,0,0,0,.243-.127,15.2,15.2,0,0,0,4.786,7.233,6.305,6.305,0,0,0,8.335-.064,15.276,15.276,0,0,0,4.7-7.17.472.472,0,0,0,.242.127.6.6,0,0,0,.487-.173,3.841,3.841,0,0,0,.962-2.124c.226-1.272.022-2.387-.458-2.612a.415.415,0,0,0-.108-.035.579.579,0,0,0-.454.147l-.007.011,0,0,0,0,0-.028A9.953,9.953,0,0,0,56.1,18.3a2.345,2.345,0,0,0-.463-.2c-.019.321.349.81.387,1.287a8.469,8.469,0,0,0-3.475-1.287c-.339-.013-.7-.01-1.079,0a12.152,12.152,0,0,1-7.334-.164c-4.379-.406-5.075,4.145-5.128,4.665,0,.013,0,.024,0,.038h0a.586.586,0,0,0-.466-.157.431.431,0,0,0-.186.081,1.036,1.036,0,0,0-.323.517c-.043.612-.072,1.232-.081,1.871.008.059.014.117.025.177A4.089,4.089,0,0,0,38.856,27.185Z" transform="translate(-2.384 -1.126)" fill="none"/>
    <path id="Path_6915" data-name="Path 6915" d="M72.094,92.12H21.807a1.291,1.291,0,0,0,0,2.582H72.094a1.291,1.291,0,0,0,0-2.582Z" transform="translate(-0.581 -8.806)" fill="#b72637"/>
    <path id="Path_6916" data-name="Path 6916" d="M45.548,50.662H70.5l0-.016c-2.651-9.119-7.548-9.432-8.6-9.678-2.075-.486-4.589-.28-5.929-.7-.157,1.314-3.983,5.641-6.49,8.354l-1.087-4.188a2.7,2.7,0,0,0,.994-2.427H45.262a2.715,2.715,0,0,0,.976,2.414l-1.069,4.2c-2.508-2.712-6.331-7.038-6.489-8.352-1.341.418-3.854.212-5.929.7-1.054.246-5.952.559-8.6,9.678l0,.016h21.4Z" transform="translate(-0.956 -3.44)" fill="#b72637"/>
    <path id="Path_6917" data-name="Path 6917" d="M23.964,87.3h44.81a3.017,3.017,0,0,0,3.017-3.018l6.034-28.4a3.017,3.017,0,0,0-3.017-3.017H17.929a3.017,3.017,0,0,0-3.018,3.017l6.034,28.4A3.018,3.018,0,0,0,23.964,87.3Zm22.4-18.556a1.6,1.6,0,0,1,1.6,1.6,1.662,1.662,0,0,1-.032.323,1.6,1.6,0,1,1-1.572-1.927Z" transform="translate(0 -4.743)" fill="#b72637"/>
    <path id="Path_6918" data-name="Path 6918" d="M37.594,27.124a19.53,19.53,0,0,0,4.436,7.047,10.947,10.947,0,0,0,3.559,2.4,7.2,7.2,0,0,0,5.478,0,11.068,11.068,0,0,0,3.672-2.512A19.621,19.621,0,0,0,59.068,27.1c.737-.217,1.51-1.6,1.823-3.357.342-1.913.019-3.581-.719-3.859.027-.466.045-.938.044-1.421C60.2,11.533,56.134,7.5,49.728,7.074c-5.589-.376-9.8,1.844-11.715,5.533a12,12,0,0,0-1.155,4.481,11.467,11.467,0,0,0-.341,2.734h.02l0,.022c-.013,0-.027,0-.04,0-.818.143-1.19,1.885-.83,3.894C35.993,25.59,36.826,27.016,37.594,27.124Zm.185-5.164a1.036,1.036,0,0,1,.323-.517.442.442,0,0,1,.186-.081.59.59,0,0,1,.466.157h0c0-.013,0-.025,0-.038.053-.521.748-5.071,5.128-4.665a12.152,12.152,0,0,0,7.334.164c.375-.008.741-.011,1.079,0a8.47,8.47,0,0,1,3.475,1.287c-.039-.478-.405-.966-.387-1.287a2.293,2.293,0,0,1,.463.2,9.938,9.938,0,0,1,2.045,4.314l0,.028,0,0,0,0,.007-.011a.579.579,0,0,1,.454-.147.415.415,0,0,1,.108.035c.48.224.684,1.339.458,2.612a3.844,3.844,0,0,1-.962,2.124.6.6,0,0,1-.487.173.472.472,0,0,1-.242-.127,15.276,15.276,0,0,1-4.7,7.17,6.305,6.305,0,0,1-8.335.064,15.2,15.2,0,0,1-4.786-7.233.471.471,0,0,1-.243.127.666.666,0,0,1-.564-.246,4.074,4.074,0,0,1-.882-2.051c-.012-.06-.017-.117-.025-.177C37.707,23.192,37.735,22.571,37.778,21.96Z" transform="translate(-2.134 0)" fill="#b72637"/>
  </g>
</svg>
