<svg xmlns="http://www.w3.org/2000/svg" width="28" height="28" viewBox="0 0 28 28">
  <g id="Group_38444" data-name="Group 38444" transform="translate(-24.2 -24.2)">
    <path id="Path_6977" data-name="Path 6977" d="M30.712,52.2H45.689A6.531,6.531,0,0,0,52.2,45.689h0V41.456a1.085,1.085,0,0,0-2.171,0v4.233a4.354,4.354,0,0,1-4.341,4.341H30.712a4.354,4.354,0,0,1-4.341-4.341V30.712a4.354,4.354,0,0,1,4.341-4.341h4.233a1.085,1.085,0,1,0,0-2.171H30.712A6.531,6.531,0,0,0,24.2,30.712V45.689A6.531,6.531,0,0,0,30.712,52.2Z"/>
    <path id="Path_6978" data-name="Path 6978" d="M52.325,25.84l-11.07,11.07a1.049,1.049,0,0,0-.271.488l-1.519,5.426a1.085,1.085,0,0,0,.76,1.357,1.11,1.11,0,0,0,.6,0l5.426-1.519a2.2,2.2,0,0,0,.488-.271L57.86,31.32a3.865,3.865,0,0,0,0-5.481,3.93,3.93,0,0,0-5.535,0ZM42.015,41.576l.543-1.845,1.357,1.357Zm14.217-11.83L45.976,40l-2.388-2.388L53.845,27.359a1.706,1.706,0,0,1,2.388.163A1.724,1.724,0,0,1,56.232,29.747Z" transform="translate(-6.962 -0.229)"/>
  </g>
</svg>
