<svg xmlns="http://www.w3.org/2000/svg" width="59" height="22" viewBox="0 0 59 22">
  <g id="Group_38454" data-name="Group 38454" transform="translate(-309 -682)">
    <text id="Edit" transform="translate(309 698)" fill="#fff" font-size="16" font-family="Avenir-Medium, Avenir" font-weight="500"><tspan x="0" y="0">Edit</tspan></text>
    <g id="Group_38453" data-name="Group 38453" transform="translate(325.3 657.8)">
      <path id="Path_6977" data-name="Path 6977" d="M28.5,42.7h9.9a4.315,4.315,0,0,0,4.3-4.3h0V35.6a.717.717,0,0,0-1.434,0v2.8A2.877,2.877,0,0,1,38.4,41.266H28.5A2.877,2.877,0,0,1,25.634,38.4V28.5A2.877,2.877,0,0,1,28.5,25.634h2.8a.717.717,0,0,0,0-1.434H28.5a4.315,4.315,0,0,0-4.3,4.3v9.9a4.315,4.315,0,0,0,4.3,4.3Z" transform="translate(0 0)" fill="#fff"/>
      <path id="Path_6978" data-name="Path 6978" d="M47.948,25.453l-7.314,7.314a.693.693,0,0,0-.179.323l-1,3.585a.717.717,0,0,0,.5.9.733.733,0,0,0,.394,0l3.585-1a1.453,1.453,0,0,0,.323-.179l7.35-7.314a2.553,2.553,0,0,0,0-3.621,2.6,2.6,0,0,0-3.657,0Zm-6.812,10.4.359-1.219.9.9Zm9.393-7.816L43.753,34.81l-1.578-1.578,6.776-6.776a1.127,1.127,0,0,1,1.578.108A1.139,1.139,0,0,1,50.529,28.034Z" transform="translate(-9.765 -0.321)" fill="#fff"/>
    </g>
  </g>
</svg>
