<svg xmlns="http://www.w3.org/2000/svg" width="564" height="154" viewBox="0 0 564 154">
  <g id="Group_38456" data-name="Group 38456" transform="translate(-610 -378)">
    <g id="Rectangle_3429" data-name="Rectangle 3429" transform="translate(610 378)" fill="none" stroke="#000" stroke-width="1">
      <rect width="564" height="154" rx="23" stroke="none"/>
      <rect x="0.5" y="0.5" width="563" height="153" rx="22.5" fill="none"/>
    </g>
    <text id="What_looked_like_a_small_patch_of_purple_grass_above_five_feet_square_was_moving_across_the_sand_in_their_direction._When_it_came_near_enough_he_perceived_that_it_was_not_grass_there_were_no_blades_but_only_purple_roots._The_roots_were_revolving_for_e" data-name="What looked like a small patch of purple grass, above five feet square, was moving across the sand in their direction.
When it came near enough he perceived that it was not grass; there were no blades, but only purple roots. The roots were revolving, for e" transform="translate(641 449)" font-size="18" font-family="Avenir-Book, Avenir"><tspan x="0" y="18">What looked like a small patch of purple grass, above five feet </tspan><tspan x="0" y="43">square, was moving across the sand in their direction.</tspan></text>
    <text id="Description" transform="translate(639 422)" font-size="18" font-family="Avenir-Medium, Avenir" font-weight="500"><tspan x="0" y="0">Description</tspan></text>
    <g id="Group_38455" data-name="Group 38455" transform="translate(1078 404)">
      <text id="Edit" transform="translate(0 16)" font-size="16" font-family="Avenir-Medium, Avenir" font-weight="500"><tspan x="0" y="0">Edit</tspan></text>
      <g id="Group_38445" data-name="Group 38445" transform="translate(40.5 0)">
        <path id="Path_6977" data-name="Path 6977" d="M28.5,42.7h9.9a4.315,4.315,0,0,0,4.3-4.3h0V35.6a.717.717,0,0,0-1.434,0v2.8A2.877,2.877,0,0,1,38.4,41.266H28.5A2.877,2.877,0,0,1,25.634,38.4V28.5A2.877,2.877,0,0,1,28.5,25.634h2.8a.717.717,0,0,0,0-1.434H28.5a4.315,4.315,0,0,0-4.3,4.3v9.9a4.315,4.315,0,0,0,4.3,4.3Z" transform="translate(-24.2 -24.2)"/>
        <path id="Path_6978" data-name="Path 6978" d="M47.948,25.453l-7.314,7.314a.693.693,0,0,0-.179.323l-1,3.585a.717.717,0,0,0,.5.9.733.733,0,0,0,.394,0l3.585-1a1.453,1.453,0,0,0,.323-.179l7.35-7.314a2.553,2.553,0,0,0,0-3.621,2.6,2.6,0,0,0-3.657,0Zm-6.812,10.4.359-1.219.9.9Zm9.393-7.816L43.753,34.81l-1.578-1.578,6.776-6.776a1.127,1.127,0,0,1,1.578.108A1.139,1.139,0,0,1,50.529,28.034Z" transform="translate(-33.965 -24.521)"/>
      </g>
    </g>
  </g>
</svg>
