<svg xmlns="http://www.w3.org/2000/svg" width="26.943" height="18.763" viewBox="0 0 26.943 18.763">
  <g id="noun_message_1211685" transform="translate(1.002 1.002)">
    <g id="Group_99" data-name="Group 99" transform="translate(0 0)">
      <path id="Path_1043" data-name="Path 1043" d="M23.208,287.966c0,.563,0,1.125-.34,1.406a3,3,0,0,1-1.7.281" transform="translate(1.733 -272.892)" fill="none" stroke="#000" stroke-linecap="round" stroke-linejoin="round" stroke-width="2"/>
      <path id="Path_1044" data-name="Path 1044" d="M6,293.917a3,3,0,0,1-1.7-.279c-.339-.279-.339-.839-.339-3.351v-9.5c0-2.514,0-3.073.407-3.352a4.231,4.231,0,0,1,2.036-.279" transform="translate(-3.969 -277.156)" fill="none" stroke="#000" stroke-linecap="round" stroke-linejoin="round" stroke-width="2"/>
      <path id="Path_1045" data-name="Path 1045" d="M22.49,278.479v13.1" transform="translate(2.446 -276.443)" fill="none" stroke="#000" stroke-linecap="round" stroke-linejoin="round" stroke-width="2"/>
      <path id="Path_1046" data-name="Path 1046" d="M26.176,289.063H5.253" transform="translate(-3.276 -272.301)" fill="none" stroke="#000" stroke-linecap="round" stroke-linejoin="round" stroke-width="2"/>
      <path id="Path_1047" data-name="Path 1047" d="M4.233,277.421,16.294,287.6l12.061-10.181" transform="translate(-3.826 -277.014)" fill="none" stroke="#000" stroke-linecap="round" stroke-linejoin="round" stroke-width="2"/>
      <path id="Path_1048" data-name="Path 1048" d="M23.2,279.192a2.579,2.579,0,0,0-.339-1.7,2.544,2.544,0,0,0-1.7-.339" transform="translate(1.733 -277.156)" fill="none" stroke="#000" stroke-width="2"/>
      <path id="Path_1049" data-name="Path 1049" d="M5.556,277.156H26.42" transform="translate(-3.113 -277.156)" fill="none" stroke="#000" stroke-linecap="round" stroke-linejoin="round" stroke-width="2"/>
    </g>
  </g>
</svg>
