<svg xmlns="http://www.w3.org/2000/svg" width="21.243" height="18.347" viewBox="0 0 21.243 18.347">
  <path id="Path_6760" data-name="Path 6760" d="M96.684,53.2c-.668,0-2.651,0-5.013,3.03-.847-1.114-2.584-3.03-5.013-3.03A5.468,5.468,0,0,0,81.2,58.658a5.53,5.53,0,0,0,.4,2.072c.49,1.2,3.208,3.9,6.684,7.285,1.337,1.292,2.473,2.428,3.052,3.075a.474.474,0,0,0,.334.156.4.4,0,0,0,.334-.156c.579-.646,1.738-1.782,3.052-3.075,3.476-3.387,6.172-6.082,6.684-7.308A5.455,5.455,0,0,0,96.684,53.2Zm4.233,7.174c-.468,1.136-3.944,4.523-6.461,7-1.136,1.092-2.117,2.072-2.763,2.763-.646-.691-1.649-1.649-2.763-2.763-2.54-2.473-6.016-5.86-6.461-7a3.785,3.785,0,0,1-.379-1.716,4.574,4.574,0,0,1,4.567-4.567c2.139,0,3.676,1.8,4.656,3.164a.465.465,0,0,0,.357.178.433.433,0,0,0,.357-.178c.958-1.359,2.5-3.164,4.656-3.164a4.574,4.574,0,0,1,4.567,4.567,4.444,4.444,0,0,1-.334,1.716Z" transform="translate(-81.05 -53.049)" stroke="#000" stroke-width="0.3"/>
</svg>
