<svg xmlns="http://www.w3.org/2000/svg" width="20.199" height="20.199" viewBox="0 0 20.199 20.199">
  <path id="Path_6981" data-name="Path 6981" d="M24.358,13.616a.158.158,0,0,1-.038-.026l-.012-.011a.169.169,0,0,1-.031-.049v0h0l-.8-1.958h0v0a.14.14,0,0,1-.006-.028.182.182,0,0,1-.008-.039.189.189,0,0,1,.006-.036v-.005a.154.154,0,0,1,0-.023v0l0,0,.891-2.313L23.011,7.76l-2.318.9h-.006a.177.177,0,0,1-.057.011.167.167,0,0,1-.059-.012h-.007L18.59,7.834l-.009-.006a.182.182,0,0,1-.04-.027l-.011-.01a.169.169,0,0,1-.032-.047l0,0h0l-1-2.262H15.582l-1,2.266a.172.172,0,0,1-.032.048l-.011.01a.172.172,0,0,1-.04.027s-.005,0-.009.006l-1.975.826h-.007a.175.175,0,0,1-.06.012.179.179,0,0,1-.057-.011h-.005l-2.309-.9L8.733,9.117l.893,2.319A.17.17,0,0,1,9.6,11.6L8.81,13.526h0v0a.172.172,0,0,1-.031.049l-.012.011a.163.163,0,0,1-.038.026l-.009.006-2.275,1v1.911l2.272,1h0l0,0a.127.127,0,0,1,.017.012.173.173,0,0,1,.035.024l0,0a.163.163,0,0,1,.019.028.154.154,0,0,1,.017.026h0v0h0l.815,1.98a.168.168,0,0,1-.021.163l-.87,2.265L10.083,23.4l2.3-.9h0a.2.2,0,0,1,.02,0,.176.176,0,0,1,.043-.009h0a.191.191,0,0,1,.031.006h0a.173.173,0,0,1,.032.006l1.975.826h0a.174.174,0,0,1,.029.019.155.155,0,0,1,.024.016l0,0a.17.17,0,0,1,.021.031l0,.005a.132.132,0,0,1,.011.016v0h0l.995,2.264h1.911l1-2.263h0v0a.177.177,0,0,1,.012-.017l0,0a.17.17,0,0,1,.021-.031l0,0a.163.163,0,0,1,.027-.018.168.168,0,0,1,.025-.017h0l1.975-.826a.153.153,0,0,1,.023,0l.01,0a.176.176,0,0,1,.031-.006h0a.163.163,0,0,1,.024,0l.009,0a.184.184,0,0,1,.029,0l2.318.9,1.349-1.357-.894-2.3a.151.151,0,0,1,0-.025.163.163,0,0,1-.006-.031v-.007a.233.233,0,0,1,.007-.039.237.237,0,0,1,.005-.026l.02-.049.786-1.931v0h0a.164.164,0,0,1,.017-.026.11.11,0,0,1,.057-.055.187.187,0,0,1,.015-.011h0l2.273-1V14.618l-2.275-1S24.361,13.617,24.358,13.616ZM20.721,15.6l-.135,1.032c0,.009-.006.016-.008.024s0,.012,0,.018l-.395.969a.185.185,0,0,1-.019.032s0,.006,0,.008l-.637.826c0,.005-.01.007-.014.011a.145.145,0,0,1-.017.02l-.835.637a.14.14,0,0,1-.024.013.137.137,0,0,1-.013.009l-.969.413a.127.127,0,0,1-.024,0,.143.143,0,0,1-.023.007l-1.041.126h-.042l-1.032-.126a.171.171,0,0,1-.023-.007.182.182,0,0,1-.024,0l-.969-.413c-.005,0-.008-.006-.013-.009a.141.141,0,0,1-.024-.013l-.835-.637a.133.133,0,0,1-.017-.02s-.01-.006-.014-.011l-.637-.826s0-.006,0-.009a.17.17,0,0,1-.018-.03l-.4-.969a.171.171,0,0,1,0-.019.152.152,0,0,1-.008-.025L12.355,15.6c0-.005,0-.01,0-.014s0-.005,0-.009,0-.005,0-.008a.125.125,0,0,1,0-.013l.135-1.041A.176.176,0,0,1,12.5,14.5a.16.16,0,0,1,0-.023l.4-.978a.156.156,0,0,1,.013-.019.14.14,0,0,1,.01-.02l.637-.826a.139.139,0,0,1,.018-.015A.134.134,0,0,1,13.6,12.6l.835-.637a.143.143,0,0,1,.02-.01.147.147,0,0,1,.019-.013l.969-.4a.14.14,0,0,1,.021,0,.162.162,0,0,1,.023-.008l1.032-.135a.152.152,0,0,1,.023,0,.168.168,0,0,1,.022,0l1.041.135a.159.159,0,0,1,.022.008.149.149,0,0,1,.022,0l.969.4a.166.166,0,0,1,.019.013.2.2,0,0,1,.02.01l.835.637c.006,0,.009.011.014.017a.151.151,0,0,1,.017.015l.637.826a.161.161,0,0,1,.011.022.152.152,0,0,1,.013.019l.395.978a.135.135,0,0,1,0,.021.143.143,0,0,1,.007.021l.135,1.041s0,.007,0,.01,0,.007,0,.011,0,.008,0,.012S20.721,15.6,20.721,15.6Z" transform="translate(-6.443 -5.478)"/>
</svg>
